<svg width="31" height="39" viewBox="0 0 31 39" fill="none" xmlns="http://www.w3.org/2000/svg">
<g filter="url(#filter0_d_1206_9436)">
<path d="M6.63085 4.85548L13.3535 3.47832C14.8923 3.1631 16.4787 3.18102 18.0106 3.52799C20.3634 4.06088 23.8241 4.83847 25.0387 5.07927C26.9457 5.45732 26.9215 6.9065 26.9457 8.29268C26.9867 10.645 27.0441 16.8114 26.9457 22.6585C26.8719 27.0382 22.6751 30.4658 19.0135 32.4753C16.9298 33.6188 14.4184 33.7067 12.2659 32.6986C5.67052 29.6096 3.96502 24.8959 4.00054 22.6585V8.29268C4.00054 6.9422 4.28348 6.12381 4.6264 5.65115C5.06185 5.05097 5.90443 5.00429 6.63085 4.85548Z" fill="white"/>
<path d="M4.25051 22.6625L4.25054 22.6625V22.6585V8.29268C4.25054 6.97324 4.52749 6.2132 4.82876 5.79796C5.00046 5.56131 5.25964 5.42165 5.59044 5.32378C5.81663 5.25686 6.04797 5.21599 6.29132 5.17301C6.41766 5.15069 6.54724 5.1278 6.68102 5.10039L13.4036 3.72324C14.9075 3.41518 16.458 3.43266 17.9554 3.77182C20.3063 4.30429 23.7712 5.08287 24.9901 5.3245C25.4368 5.41305 25.7538 5.56095 25.9826 5.74198C26.2102 5.92206 26.3626 6.14446 26.4664 6.40154C26.6722 6.91111 26.6828 7.5358 26.6943 8.21399C26.6947 8.24158 26.6952 8.26927 26.6957 8.29704C26.7367 10.6474 26.7941 16.8108 26.6957 22.6543C26.6602 24.7619 25.6326 26.6578 24.1407 28.2869C22.6491 29.9157 20.7094 31.2594 18.8933 32.2561C16.8789 33.3616 14.4517 33.4462 12.3719 32.4722C5.85246 29.4187 4.21677 24.7876 4.25051 22.6625Z" stroke="#AAAAAA" stroke-width="0.5"/>
</g>
<defs>
<filter id="filter0_d_1206_9436" x="0" y="0.254395" width="31" height="38.1436" filterUnits="userSpaceOnUse" color-interpolation-filters="sRGB">
<feFlood flood-opacity="0" result="BackgroundImageFix"/>
<feColorMatrix in="SourceAlpha" type="matrix" values="0 0 0 0 0 0 0 0 0 0 0 0 0 0 0 0 0 0 127 0" result="hardAlpha"/>
<feOffset dy="1"/>
<feGaussianBlur stdDeviation="2"/>
<feColorMatrix type="matrix" values="0 0 0 0 0 0 0 0 0 0 0 0 0 0 0 0 0 0 0.25 0"/>
<feBlend mode="normal" in2="BackgroundImageFix" result="effect1_dropShadow_1206_9436"/>
<feBlend mode="normal" in="SourceGraphic" in2="effect1_dropShadow_1206_9436" result="shape"/>
</filter>
</defs>
</svg>
